{
  "accessors": {
    "accessor_index_0": {
      "bufferView": "bufferView_1",
      "byteOffset": 0,
      "byteStride": 0,
      "componentType": 5123,
      "count": 21102,
      "type": "SCALAR",
      "min": [
        0
      ],
      "max": [
        17669
      ]
    },
    "accessor_index_1": {
      "bufferView": "bufferView_1",
      "byteOffset": 42204,
      "byteStride": 0,
      "componentType": 5123,
      "count": 3990,
      "type": "SCALAR",
      "min": [
        24
      ],
      "max": [
        17665
      ]
    },
    "accessor_index_2": {
      "bufferView": "bufferView_1",
      "byteOffset": 50184,
      "byteStride": 0,
      "componentType": 5123,
      "count": 7506,
      "type": "SCALAR",
      "min": [
        1986
      ],
      "max": [
        19058
      ]
    },
    "accessor_index_3": {
      "bufferView": "bufferView_1",
      "byteOffset": 65196,
      "byteStride": 0,
      "componentType": 5123,
      "count": 10656,
      "type": "SCALAR",
      "min": [
        5264
      ],
      "max": [
        18665
      ]
    },
    "accessor_index_4": {
      "bufferView": "bufferView_1",
      "byteOffset": 86508,
      "byteStride": 0,
      "componentType": 5123,
      "count": 1872,
      "type": "SCALAR",
      "min": [
        5364
      ],
      "max": [
        8334
      ]
    },
    "accessor_index_5": {
      "bufferView": "bufferView_1",
      "byteOffset": 90252,
      "byteStride": 0,
      "componentType": 5123,
      "count": 684,
      "type": "SCALAR",
      "min": [
        18783
      ],
      "max": [
        19290
      ]
    },
    "accessor_index_6": {
      "bufferView": "bufferView_1",
      "byteOffset": 91620,
      "byteStride": 0,
      "componentType": 5123,
      "count": 465,
      "type": "SCALAR",
      "min": [
        18667
      ],
      "max": [
        19450
      ]
    },
    "accessor_position": {
      "bufferView": "bufferView_0",
      "byteOffset": 0,
      "byteStride": 0,
      "componentType": 5126,
      "count": 18830,
      "min": [
        -1037.6705322265625,
        -282.3268127441406,
        -232.49110412597656
      ],
      "max": [
        1037.6702880859375,
        282.34429931640625,
        232.49119567871094
      ],
      "type": "VEC3"
    },
    "accessor_normal": {
      "bufferView": "bufferView_0",
      "byteOffset": 225960,
      "byteStride": 0,
      "componentType": 5126,
      "count": 18830,
      "type": "VEC3",
      "min": [
        -1,
        -1,
        -1
      ],
      "max": [
        1,
        1,
        1
      ]
    }
  },
  "asset": {
    "generator": "OBJ2GLTF",
    "premultipliedAlpha": true,
    "profile": {
      "api": "WebGL",
      "version": "1.0"
    },
    "version": "1.0"
  },
  "buffers": {
    "buffer_0": {
      "type": "arraybuffer",
      "byteLength": 544470,
      "uri": "data:application/octet-stream;base64,"
    }
  },
  "bufferViews": {
    "bufferView_0": {
      "buffer": "buffer_0",
      "byteLength": 451920,
      "byteOffset": 0,
      "target": 34962
    },
    "bufferView_1": {
      "buffer": "buffer_0",
      "byteLength": 92550,
      "byteOffset": 451920,
      "target": 34963
    }
  },
  "images": {},
  "materials": {
    "material_Metal_Aluminum_Anodized": {
      "name": "Metal_Aluminum_Anodized",
      "extensions": {},
      "values": {
        "ambient": [
          0,
          0,
          0,
          1
        ],
        "diffuse": [
          0.7922,
          0.8196,
          0.8588,
          1
        ],
        "emission": [
          0,
          0,
          0,
          1
        ],
        "specular": [
          0.33,
          0.33,
          0.33,
          1
        ],
        "shininess": 43.2193,
        "transparency": 1
      },
      "technique": "technique0"
    },
    "material_Translucent_Glass_Safety": {
      "name": "Translucent_Glass_Safety",
      "extensions": {},
      "values": {
        "ambient": [
          0,
          0,
          0,
          1
        ],
        "diffuse": [
          0.8,
          0.9216,
          0.9569,
          1
        ],
        "emission": [
          0,
          0,
          0,
          1
        ],
        "specular": [
          0.33,
          0.33,
          0.33,
          1
        ],
        "shininess": 43.2193,
        "transparency": 1
      },
      "technique": "technique0"
    },
    "material_M_0016_Tomato": {
      "name": "M_0016_Tomato",
      "extensions": {},
      "values": {
        "ambient": [
          0,
          0,
          0,
          1
        ],
        "diffuse": [
          1,
          0.3882,
          0.2784,
          1
        ],
        "emission": [
          0,
          0,
          0,
          1
        ],
        "specular": [
          0.33,
          0.33,
          0.33,
          1
        ],
        "shininess": 43.2193,
        "transparency": 1
      },
      "technique": "technique0"
    },
    "material_Color_B05": {
      "name": "Color_B05",
      "extensions": {},
      "values": {
        "ambient": [
          0,
          0,
          0,
          1
        ],
        "diffuse": [
          1,
          0.8471,
          0.8,
          1
        ],
        "emission": [
          0,
          0,
          0,
          1
        ],
        "specular": [
          0.33,
          0.33,
          0.33,
          1
        ],
        "shininess": 43.2193,
        "transparency": 1
      },
      "technique": "technique0"
    },
    "material_Metal_Rough": {
      "name": "Metal_Rough",
      "extensions": {},
      "values": {
        "ambient": [
          0,
          0,
          0,
          1
        ],
        "diffuse": [
          0.6,
          0.6157,
          0.6275,
          1
        ],
        "emission": [
          0,
          0,
          0,
          1
        ],
        "specular": [
          0.33,
          0.33,
          0.33,
          1
        ],
        "shininess": 43.2193,
        "transparency": 1
      },
      "technique": "technique0"
    },
    "material_Roofing_Shingles_GAF_Estates": {
      "name": "Roofing_Shingles_GAF_Estates",
      "extensions": {},
      "values": {
        "ambient": [
          0,
          0,
          0,
          1
        ],
        "diffuse": [
          0.3176,
          0.302,
          0.2902,
          1
        ],
        "emission": [
          0,
          0,
          0,
          1
        ],
        "specular": [
          0.33,
          0.33,
          0.33,
          1
        ],
        "shininess": 43.2193,
        "transparency": 1
      },
      "technique": "technique0"
    },
    "material_FrontColor": {
      "name": "FrontColor",
      "extensions": {},
      "values": {
        "ambient": [
          0,
          0,
          0,
          1
        ],
        "diffuse": [
          1,
          1,
          1,
          0
        ],
        "emission": [
          0,
          0,
          0,
          1
        ],
        "specular": [
          0.33,
          0.33,
          0.33,
          1
        ],
        "shininess": 43.2193,
        "transparency": 1
      },
      "technique": "technique1"
    }
  },
  "meshes": {
    "mesh_jianzhuwu": {
      "name": "jianzhuwu",
      "primitives": [
        {
          "attributes": {
            "POSITION": "accessor_position",
            "NORMAL": "accessor_normal"
          },
          "indices": "accessor_index_0",
          "material": "material_Metal_Aluminum_Anodized",
          "mode": 4
        },
        {
          "attributes": {
            "POSITION": "accessor_position",
            "NORMAL": "accessor_normal"
          },
          "indices": "accessor_index_1",
          "material": "material_Translucent_Glass_Safety",
          "mode": 4
        },
        {
          "attributes": {
            "POSITION": "accessor_position",
            "NORMAL": "accessor_normal"
          },
          "indices": "accessor_index_2",
          "material": "material_M_0016_Tomato",
          "mode": 4
        },
        {
          "attributes": {
            "POSITION": "accessor_position",
            "NORMAL": "accessor_normal"
          },
          "indices": "accessor_index_3",
          "material": "material_Color_B05",
          "mode": 4
        },
        {
          "attributes": {
            "POSITION": "accessor_position",
            "NORMAL": "accessor_normal"
          },
          "indices": "accessor_index_4",
          "material": "material_Metal_Rough",
          "mode": 4
        },
        {
          "attributes": {
            "POSITION": "accessor_position",
            "NORMAL": "accessor_normal"
          },
          "indices": "accessor_index_5",
          "material": "material_Roofing_Shingles_GAF_Estates",
          "mode": 4
        },
        {
          "attributes": {
            "POSITION": "accessor_position",
            "NORMAL": "accessor_normal"
          },
          "indices": "accessor_index_6",
          "material": "material_FrontColor",
          "mode": 4
        }
      ]
    }
  },
  "nodes": {
    "rootNode": {
      "children": [],
      "meshes": [
        "mesh_jianzhuwu"
      ],
      "matrix": [
        1,
        0,
        0,
        0,
        0,
        1,
        0,
        0,
        0,
        0,
        1,
        0,
        0,
        0,
        0,
        1
      ]
    }
  },
  "samplers": {},
  "scene": "scene_jianzhuwu",
  "scenes": {
    "scene_jianzhuwu": {
      "nodes": [
        "rootNode"
      ]
    }
  },
  "textures": {},
  "extensionsUsed": [],
  "animations": {},
  "cameras": {},
  "techniques": {
    "technique0": {
      "attributes": {
        "a_position": "position",
        "a_normal": "normal"
      },
      "parameters": {
        "modelViewMatrix": {
          "semantic": "MODELVIEW",
          "type": 35676
        },
        "projectionMatrix": {
          "semantic": "PROJECTION",
          "type": 35676
        },
        "normalMatrix": {
          "semantic": "MODELVIEWINVERSETRANSPOSE",
          "type": 35675
        },
        "ambient": {
          "type": 35666
        },
        "diffuse": {
          "type": 35666
        },
        "emission": {
          "type": 35666
        },
        "specular": {
          "type": 35666
        },
        "shininess": {
          "type": 5126
        },
        "transparency": {
          "type": 5126
        },
        "position": {
          "semantic": "POSITION",
          "type": 35665
        },
        "normal": {
          "semantic": "NORMAL",
          "type": 35665
        }
      },
      "program": "program0",
      "states": {
        "enable": [
          2884,
          2929
        ]
      },
      "uniforms": {
        "u_modelViewMatrix": "modelViewMatrix",
        "u_projectionMatrix": "projectionMatrix",
        "u_normalMatrix": "normalMatrix",
        "u_ambient": "ambient",
        "u_diffuse": "diffuse",
        "u_emission": "emission",
        "u_specular": "specular",
        "u_shininess": "shininess",
        "u_transparency": "transparency"
      }
    },
    "technique1": {
      "attributes": {
        "a_position": "position",
        "a_normal": "normal"
      },
      "parameters": {
        "modelViewMatrix": {
          "semantic": "MODELVIEW",
          "type": 35676
        },
        "projectionMatrix": {
          "semantic": "PROJECTION",
          "type": 35676
        },
        "normalMatrix": {
          "semantic": "MODELVIEWINVERSETRANSPOSE",
          "type": 35675
        },
        "ambient": {
          "type": 35666
        },
        "diffuse": {
          "type": 35666
        },
        "emission": {
          "type": 35666
        },
        "specular": {
          "type": 35666
        },
        "shininess": {
          "type": 5126
        },
        "transparency": {
          "type": 5126
        },
        "position": {
          "semantic": "POSITION",
          "type": 35665
        },
        "normal": {
          "semantic": "NORMAL",
          "type": 35665
        }
      },
      "program": "program1",
      "states": {
        "enable": [
          2929,
          3042
        ],
        "depthMask": false,
        "functions": {
          "blendEquationSeparate": [
            32774,
            32774
          ],
          "blendFuncSeparate": [
            1,
            771,
            1,
            771
          ]
        }
      },
      "uniforms": {
        "u_modelViewMatrix": "modelViewMatrix",
        "u_projectionMatrix": "projectionMatrix",
        "u_normalMatrix": "normalMatrix",
        "u_ambient": "ambient",
        "u_diffuse": "diffuse",
        "u_emission": "emission",
        "u_specular": "specular",
        "u_shininess": "shininess",
        "u_transparency": "transparency"
      }
    }
  },
  "programs": {
    "program0": {
      "attributes": [
        "a_position",
        "a_normal"
      ],
      "fragmentShader": "fragmentShader0",
      "vertexShader": "vertexShader0"
    },
    "program1": {
      "attributes": [
        "a_position",
        "a_normal"
      ],
      "fragmentShader": "fragmentShader1",
      "vertexShader": "vertexShader1"
    }
  },
  "shaders": {
    "vertexShader0": {
      "type": 35633,
      "uri": "data:text/plain;base64,"
    },
    "fragmentShader0": {
      "type": 35632,
      "uri": "data:text/plain;base64,"
    },
    "vertexShader1": {
      "type": 35633,
      "uri": "data:text/plain;base64,"
    },
    "fragmentShader1": {
      "type": 35632,
      "uri": "data:text/plain;base64,"
    }
  },
  "skins": {},
  "extensions": {}
}
